<svg id="Bold" xmlns="http://www.w3.org/2000/svg" viewBox="0 0 24 24"><title>ecology-leaf</title><path d="M23.737,3.161a1.007,1.007,0,0,0-1.56-.665,13.434,13.434,0,0,1-7.661,1.949c-6.179,0-8.758,2.519-8.807,2.577a8.056,8.056,0,0,0-2.673,9.543.5.5,0,0,1-.1.534L.268,19.988a1.007,1.007,0,0,0,1.367,1.471C3.351,19.9,6.15,15.2,14.019,11.911a1.007,1.007,0,0,1,.777,1.858A26.3,26.3,0,0,0,6.365,19.31l-.009.01-.232.251a.5.5,0,0,0,.1.769,8.01,8.01,0,0,0,4.262,1.223A12.212,12.212,0,0,0,16.27,19.99h0C25.039,15.166,24.2,5.889,23.737,3.161Z"/></svg>